<?xml version="1.0" encoding="UTF-8"?>
<!-- Generator: Adobe Illustrator 27.5.0, SVG Export Plug-In . SVG Version: 6.00 Build 0)  -->
<svg xmlns="http://www.w3.org/2000/svg" xmlns:xlink="http://www.w3.org/1999/xlink" version="1.1" id="Layer_1" x="0px" y="0px" viewBox="0 0 409.3 114.41" style="enable-background:new 0 0 409.3 114.41;" xml:space="preserve">
<style type="text/css">
	.st0{fill:none;}
	.st1{fill:#202020;}
	.st2{fill:#E84F0A;}
</style>
<g>
	<path class="st0" d="M306.09,33.82c-3.93,0-7.13,1.21-9.63,3.63c-2.51,2.41-3.84,5.88-4.02,10.37h27.31   c-0.36-4.67-1.6-8.12-3.75-10.37C313.69,35.02,310.38,33.82,306.09,33.82z"></path>
	<path class="st0" d="M376.38,33.9c-3.93,0-7.15,1.21-9.64,3.63c-2.5,2.44-3.84,5.89-4.02,10.39h27.31   c-0.36-4.68-1.61-8.14-3.74-10.39C383.96,35.12,380.66,33.9,376.38,33.9z"></path>
	<path class="st0" d="M235.39,34.5c-4.99,0-8.83,1.74-11.5,5.19c-2.69,3.63-4.02,8.57-4.02,14.78c0,7.27,1.24,12.55,3.74,15.83   c2.67,3.64,6.42,5.46,11.25,5.46c4.99,0,8.83-1.82,11.49-5.46c2.68-3.63,4.01-8.9,4.01-15.83c0-6.21-1.33-11.05-4.01-14.52   C243.69,36.33,240.03,34.5,235.39,34.5z"></path>
	<path class="st1" d="M32.38,90.8c8.37,0,15.33-1.98,20.87-5.96c5.52-3.8,9.27-9.34,11.23-16.6H51.11c-2.14,0-3.76,0.43-4.83,1.29   c-1.07,0.87-1.79,1.57-2.14,2.08c-0.54,0.52-1.02,1-1.46,1.43c-0.46,0.43-0.95,0.74-1.47,0.91c-2.15,1.2-4.74,1.82-7.75,1.82   c-4.65,0-8.13-1.39-10.44-4.16c-3.21-3.27-4.83-8.9-4.83-16.87c0-7.94,1.62-13.65,4.83-17.11c2.5-2.43,5.7-3.63,9.63-3.63   c4.28,0,7.58,1.21,9.9,3.63c0.89,0.86,1.78,2.16,2.68,3.89h18.73C62.52,36.5,60.2,32.09,57,28.28c-5.89-6.22-14.19-9.33-24.89-9.33   c-10.18,0-18.12,3.2-23.83,9.59C2.75,34.76,0,43.42,0,54.48c0,11.6,2.84,20.5,8.56,26.72C14.27,87.6,22.21,90.8,32.38,90.8z"></path>
	<path class="st1" d="M78.67,20.5h-9.64V89.5h18.74V29.32c0-2.42-0.9-4.5-2.67-6.23C83.3,21.37,81.17,20.5,78.67,20.5z"></path>
	<path class="st1" d="M78.67,0.27h-9.64v14.26h18.74V9.08c0-2.42-0.9-4.49-2.67-6.23C83.3,1.13,81.17,0.27,78.67,0.27z"></path>
	<path class="st1" d="M114.66,9.08c0-2.42-0.9-4.49-2.68-6.23c-1.79-1.72-3.84-2.59-6.15-2.59H96.2v76.28   c0,7.94,3.43,12.18,10.3,12.7c6.86,0.51,13.24,0.59,19.13,0.25V76.01H120c-3.57,0-5.34-1.46-5.34-4.41V33.21h1.87   c2.51,0,4.64-0.81,6.43-2.47c1.77-1.64,2.67-3.75,2.67-6.35v-3.63h-10.97V9.08z"></path>
	<path class="st1" d="M168.99,99.1l27.29-78.6h-12.85c-4.64,0-7.49,2.08-8.55,6.23l-12.6,42.54L147.84,20.5h-20.6l24.89,68.76   c1.24,3.62,0.85,6.24-1.21,7.9c-2.05,1.65-4.86,2.46-8.43,2.46h-5.08v14.27c0.53,0,1.2,0.04,2,0.14c0.81,0.09,1.48,0.21,2.02,0.39   h1.86h1.88c7.31,0,12.57-1.04,15.78-3.12C164.16,108.86,166.85,104.8,168.99,99.1z"></path>
	<path class="st2" d="M240.21,18.95c-4.65,0-8.57,0.86-11.77,2.59c-3.76,2.07-6.61,4.76-8.57,8.05V8.83c0-2.42-0.9-4.5-2.68-6.23   C215.4,0.87,213.27,0,210.77,0h-9.1v59.41c0,12.27,3.65,20.58,10.97,24.92c7.32,4.32,15.26,6.47,23.83,6.47   c4.45,0,8.97-0.74,13.51-2.2c4.55-1.47,8.16-3.84,10.84-7.14c5.35-6.74,8.03-15.46,8.03-26.2c0-10.72-2.68-19.46-8.03-26.2   C255.46,22.31,248.59,18.95,240.21,18.95z M246.36,70.3c-2.67,3.64-6.5,5.46-11.49,5.46c-4.83,0-8.58-1.82-11.25-5.46   c-2.5-3.28-3.74-8.56-3.74-15.83c0-6.21,1.34-11.15,4.02-14.78c2.67-3.45,6.51-5.19,11.5-5.19c4.64,0,8.3,1.83,10.97,5.45   c2.68,3.47,4.01,8.31,4.01,14.52C250.36,61.4,249.04,66.67,246.36,70.3z"></path>
	<path class="st2" d="M305.57,18.76c-10.17,0-18.12,3.2-23.83,9.6c-5.54,6.23-8.3,14.88-8.3,25.96c0,11.59,2.86,20.5,8.57,26.72   c5.71,6.41,13.64,9.61,23.83,9.61c8.39,0,15.35-1.98,20.88-5.98c5.53-3.8,9.29-9.34,11.25-16.61h-13.39c-2.14,0-3.8,0.44-4.95,1.31   c-1.17,0.86-1.84,1.54-2.01,2.08c-0.53,0.52-1.04,0.99-1.47,1.41c-0.45,0.44-0.93,0.74-1.47,0.91c-2.14,1.22-4.74,1.83-7.76,1.83   c-4.64,0-8.12-1.38-10.44-4.15c-2.51-2.6-3.84-6.58-4.02-11.93h46.32c0.16-0.36,0.27-0.96,0.27-1.83v-1.03v-1.82   c0-11.43-2.86-20.32-8.57-26.74C324.57,21.87,316.27,18.76,305.57,18.76z M292.45,47.82c0.18-4.49,1.51-7.96,4.02-10.37   c2.5-2.43,5.7-3.63,9.63-3.63c4.29,0,7.59,1.21,9.91,3.63c2.16,2.25,3.39,5.71,3.75,10.37H292.45z"></path>
	<path class="st2" d="M375.84,18.84c-10.18,0-18.12,3.21-23.84,9.6c-5.52,6.24-8.29,14.89-8.29,25.96c0,11.59,2.84,20.51,8.57,26.73   c5.71,6.41,13.65,9.6,23.82,9.6c8.39,0,15.36-1.99,20.88-5.97c5.54-3.81,9.29-9.34,11.26-16.61h-13.4c-2.14,0-3.79,0.43-4.95,1.3   c-1.16,0.88-1.83,1.56-2.01,2.08c-0.54,0.52-1.03,0.98-1.46,1.43c-0.45,0.44-0.95,0.73-1.48,0.91c-2.14,1.21-4.73,1.81-7.77,1.81   c-4.65,0-8.13-1.39-10.44-4.15c-2.5-2.59-3.84-6.58-4.02-11.94h46.32c0.16-0.35,0.25-0.96,0.25-1.82v-1.04v-1.81   c0-11.42-2.85-20.33-8.55-26.73C394.85,21.96,386.54,18.84,375.84,18.84z M362.72,47.92c0.18-4.5,1.52-7.95,4.02-10.39   c2.5-2.41,5.71-3.63,9.64-3.63c4.28,0,7.58,1.21,9.91,3.63c2.13,2.25,3.38,5.71,3.74,10.39H362.72z"></path>
</g>
</svg>
